<svg width="145" height="145" viewBox="0 0 145 145" fill="none" xmlns="http://www.w3.org/2000/svg">
<g clip-path="url(#clip0_553_648)">
<path d="M145 0H0V145H145V0Z" fill="#DF714E"/>
<path d="M58.731 98.338H85.555C85.555 98.338 99.328 84.751 98.795 67.119C98.264 49.489 81.422 38.673 66.353 38.673C51.286 38.673 40.116 75.745 58.731 98.338Z" fill="#412E1F"/>
<path d="M109.374 115.395C104.411 105.999 72.5012 100.102 72.5012 100.102C72.5012 100.102 40.5892 105.998 35.6262 115.395C31.9582 128.434 28.8882 145 28.8882 145H72.5012H116.112C116.112 145 114.04 127.236 109.374 115.395Z" fill="#F1C9A5"/>
<path d="M72.501 100.102C72.501 100.102 104.411 105.998 109.374 115.395C114.04 127.237 116.112 145 116.112 145H72.501V100.102Z" fill="#E4B692"/>
<path d="M81.188 81.0011H63.813V110.078H81.188V81.0011Z" fill="#F1C9A5"/>
<path d="M81.188 81.0011H72.501V110.078H81.188V81.0011Z" fill="#E4B692"/>
<path opacity="0.1" d="M63.813 94.4741C65.376 98.9591 71.682 101.532 76.313 101.532C77.989 101.532 79.618 101.252 81.188 100.736V81.0011H63.813V94.4741Z" fill="#DDAC8C"/>
<path d="M94.8371 62.6521C94.8371 44.4901 84.8371 34.1631 72.5011 34.1631C60.1631 34.1631 50.1631 44.4901 50.1631 62.6521C50.1631 80.8141 60.1631 95.5401 72.5011 95.5401C84.8371 95.5401 94.8371 80.8141 94.8371 62.6521Z" fill="#F1C9A5"/>
<path d="M91.438 75.2441C87.389 74.7931 84.655 70.1561 85.34 64.8911C86.018 59.6221 89.854 55.7121 93.904 56.1591C97.951 56.6071 100.681 61.2431 99.998 66.5121C99.319 71.7811 95.487 75.6881 91.438 75.2441Z" fill="#E4B692"/>
<path d="M45.1611 66.5131C44.4771 61.2441 47.2081 56.6091 51.2531 56.1601C55.3061 55.7131 59.1421 59.6231 59.8211 64.8921C60.5051 70.1571 57.7681 74.7931 53.7211 75.2451C49.6731 75.6881 45.8411 71.7811 45.1611 66.5131Z" fill="#F1C9A5"/>
<path d="M94.837 62.6521C94.837 44.4901 84.837 34.1631 72.501 34.1631V95.5401C84.837 95.5401 94.837 80.8141 94.837 62.6521Z" fill="#E4B692"/>
<path d="M116.112 145C116.112 145 114.04 127.236 109.374 115.395C106.653 110.241 95.8292 106.144 86.6042 103.493L72.4672 114.59L57.7622 103.676C48.6822 106.331 38.2852 110.36 35.6252 115.396C31.9582 128.434 28.8882 145 28.8882 145H72.5012H116.112Z" fill="#21503E"/>
<path d="M63.4874 45.618C67.1944 52.31 76.4874 56.122 83.1924 61.15C94.9324 69.95 89.6264 89.411 85.5554 98.338C100.307 89.764 111.123 75.379 105.696 52.067C100.27 28.755 81.7454 18.836 62.5834 27.102C46.8134 22.967 30.6284 46.915 32.4934 68.575C34.3584 90.231 58.7314 98.338 58.7314 98.338C58.7314 98.338 44.1944 66.074 63.4874 45.618Z" fill="#86572B"/>
<path d="M90.3803 104.637C90.3803 104.637 86.4423 102.655 83.5173 102.637C79.5313 105.279 72.4683 114.589 72.4683 114.589L76.4293 118.929C76.4293 118.929 88.0223 105.947 90.3803 104.637Z" fill="white"/>
<path d="M54.5562 104.637C54.5562 104.637 58.4942 102.655 61.4172 102.637C65.4052 105.279 72.4682 114.589 72.4682 114.589L68.5072 118.929C68.5072 118.929 56.9152 105.947 54.5562 104.637Z" fill="white"/>
<path d="M72.4681 114.589C72.4681 114.589 65.7921 121.853 67.6541 126.994C69.5151 132.137 67.9201 139.051 67.9201 139.051L69.8971 138.696C69.8971 138.696 71.3541 132.824 69.0301 126.222C67.9401 123.13 70.5501 117.023 72.4681 114.589Z" fill="white"/>
<path d="M72.4252 114.589C72.4252 114.589 68.9822 124.922 72.7572 130.053C76.5322 135.184 77.7432 143.441 77.7432 143.441L79.4702 142.388C79.4702 142.388 78.5382 135.341 73.7512 128.733C71.5092 125.638 71.5732 117.946 72.4252 114.589Z" fill="white"/>
</g>
<defs>
<clipPath id="clip0_553_648">
<rect width="145" height="145" fill="white"/>
</clipPath>
</defs>
</svg>
