<svg xmlns="http://www.w3.org/2000/svg" width="127" height="127" viewBox="0 0 127 127" fill="none">
  <rect width="127" height="127" fill="white"/>
  <path d="M84.6666 52.9166V37.0416H21.1666V84.6666H84.6666V68.7916L105.833 79.375V42.3333L84.6666 52.9166ZM68.7916 74.0833H31.75V47.625H68.7916V74.0833Z" fill="black"/>
  <path d="M47.625 60.3251C47.625 63.2461 45.2543 65.6168 42.3333 65.6168C39.4123 65.6168 37.0416 63.2461 37.0416 60.3251C37.0416 57.4041 39.4123 55.0334 42.3333 55.0334C45.2543 55.0334 47.625 57.4041 47.625 60.3251Z" fill="black"/>
  <path d="M63.5 60.3251C63.5 63.2461 61.1293 65.6168 58.2083 65.6168C55.2873 65.6168 52.9166 63.2461 52.9166 60.3251C52.9166 57.4041 55.2873 55.0334 58.2083 55.0334C61.1293 55.0334 63.5 57.4041 63.5 60.3251Z" fill="black"/>
</svg>