<svg width="113" height="114" viewBox="0 0 113 114" fill="none" xmlns="http://www.w3.org/2000/svg">
<mask id="mask0_22_512" style="mask-type:alpha" maskUnits="userSpaceOnUse" x="0" y="0" width="113" height="114">
<rect x="0.233887" y="0.556519" width="112.623" height="112.623" fill="#D9D9D9"/>
</mask>
<g mask="url(#mask0_22_512)">
<path d="M75.3158 42.7901C72.0309 42.7901 69.2545 41.6561 66.9864 39.388C64.7183 37.1199 63.5842 34.3434 63.5842 31.0586C63.5842 27.7738 64.7183 24.9973 66.9864 22.7292C69.2545 20.4611 72.0309 19.3271 75.3158 19.3271V42.7901ZM75.3158 42.7901H98.7788C98.7788 39.5053 97.6448 36.7288 95.3767 34.4607C93.1086 32.1926 90.3321 31.0586 87.0473 31.0586C83.7625 31.0586 80.986 32.1926 78.7179 34.4607C76.4498 36.7288 75.3158 39.5053 75.3158 42.7901ZM75.3158 103.794C67.4948 103.794 60.8469 101.057 55.3722 95.582C49.8975 90.1073 47.1601 83.4594 47.1601 75.6384C47.1601 67.8174 49.8975 61.1695 55.3722 55.6948C60.8469 50.2201 67.4948 47.4827 75.3158 47.4827C83.1368 47.4827 89.7847 50.2201 95.2594 55.6948C100.734 61.1695 103.471 67.8174 103.471 75.6384C103.471 83.4594 100.734 90.1073 95.2594 95.582C89.7847 101.057 83.1368 103.794 75.3158 103.794ZM75.3158 94.4088C80.4776 94.4088 84.8965 92.5709 88.5724 88.895C92.2483 85.2192 94.0862 80.8003 94.0862 75.6384C94.0862 70.4765 92.2483 66.0576 88.5724 62.3818C84.8965 58.7059 80.4776 56.868 75.3158 56.868C70.1539 56.868 65.735 58.7059 62.0591 62.3818C58.3833 66.0576 56.5453 70.4765 56.5453 75.6384C56.5453 80.8003 58.3833 85.2192 62.0591 88.895C65.735 92.5709 70.1539 94.4088 75.3158 94.4088ZM19.0044 94.4088C16.4235 94.4088 14.2141 93.4899 12.3761 91.6519C10.5382 89.814 9.6192 87.6046 9.6192 85.0236V49.3598C9.6192 48.7341 9.67786 48.1084 9.79517 47.4827C9.91249 46.857 10.0885 46.2314 10.3231 45.6057L19.7083 24.0197H19.0044C17.6749 24.0197 16.5604 23.57 15.6609 22.6705C14.7615 21.7711 14.3118 20.6566 14.3118 19.3271V14.6344C14.3118 13.3049 14.7615 12.1904 15.6609 11.291C16.5604 10.3915 17.6749 9.94183 19.0044 9.94183H51.8527C53.1823 9.94183 54.2968 10.3915 55.1962 11.291C56.0956 12.1904 56.5453 13.3049 56.5453 14.6344V19.3271C56.5453 20.6566 56.0956 21.7711 55.1962 22.6705C54.2968 23.57 53.1823 24.0197 51.8527 24.0197H51.1488L58.8916 41.8516C57.4056 42.6337 55.9979 43.4549 54.6683 44.3152C53.3387 45.1755 52.0873 46.1532 50.9142 47.2481L41.0597 24.0197H29.7974L19.0044 49.3598V85.0236H38.948C39.3391 86.666 39.867 88.2889 40.5318 89.8922C41.1966 91.4955 41.9982 93.0011 42.9367 94.4088H19.0044Z" fill="#1C1B1F"/>
<path d="M75.3158 42.7901C72.0309 42.7901 69.2545 41.6561 66.9864 39.388C64.7183 37.1199 63.5842 34.3434 63.5842 31.0586C63.5842 27.7738 64.7183 24.9973 66.9864 22.7292C69.2545 20.4611 72.0309 19.3271 75.3158 19.3271V42.7901ZM75.3158 42.7901H98.7788C98.7788 39.5053 97.6448 36.7288 95.3767 34.4607C93.1086 32.1926 90.3321 31.0586 87.0473 31.0586C83.7625 31.0586 80.986 32.1926 78.7179 34.4607C76.4498 36.7288 75.3158 39.5053 75.3158 42.7901ZM75.3158 103.794C67.4948 103.794 60.8469 101.057 55.3722 95.582C49.8975 90.1073 47.1601 83.4594 47.1601 75.6384C47.1601 67.8174 49.8975 61.1695 55.3722 55.6948C60.8469 50.2201 67.4948 47.4827 75.3158 47.4827C83.1368 47.4827 89.7847 50.2201 95.2594 55.6948C100.734 61.1695 103.471 67.8174 103.471 75.6384C103.471 83.4594 100.734 90.1073 95.2594 95.582C89.7847 101.057 83.1368 103.794 75.3158 103.794ZM75.3158 94.4088C80.4776 94.4088 84.8965 92.5709 88.5724 88.895C92.2483 85.2192 94.0862 80.8003 94.0862 75.6384C94.0862 70.4765 92.2483 66.0576 88.5724 62.3818C84.8965 58.7059 80.4776 56.868 75.3158 56.868C70.1539 56.868 65.735 58.7059 62.0591 62.3818C58.3833 66.0576 56.5453 70.4765 56.5453 75.6384C56.5453 80.8003 58.3833 85.2192 62.0591 88.895C65.735 92.5709 70.1539 94.4088 75.3158 94.4088ZM19.0044 94.4088C16.4235 94.4088 14.2141 93.4899 12.3761 91.6519C10.5382 89.814 9.6192 87.6046 9.6192 85.0236V49.3598C9.6192 48.7341 9.67786 48.1084 9.79517 47.4827C9.91249 46.857 10.0885 46.2314 10.3231 45.6057L19.7083 24.0197H19.0044C17.6749 24.0197 16.5604 23.57 15.6609 22.6705C14.7615 21.7711 14.3118 20.6566 14.3118 19.3271V14.6344C14.3118 13.3049 14.7615 12.1904 15.6609 11.291C16.5604 10.3915 17.6749 9.94183 19.0044 9.94183H51.8527C53.1823 9.94183 54.2968 10.3915 55.1962 11.291C56.0956 12.1904 56.5453 13.3049 56.5453 14.6344V19.3271C56.5453 20.6566 56.0956 21.7711 55.1962 22.6705C54.2968 23.57 53.1823 24.0197 51.8527 24.0197H51.1488L58.8916 41.8516C57.4056 42.6337 55.9979 43.4549 54.6683 44.3152C53.3387 45.1755 52.0873 46.1532 50.9142 47.2481L41.0597 24.0197H29.7974L19.0044 49.3598V85.0236H38.948C39.3391 86.666 39.867 88.2889 40.5318 89.8922C41.1966 91.4955 41.9982 93.0011 42.9367 94.4088H19.0044Z" stroke="black"/>
</g>
</svg>
