<svg width="108" height="109" viewBox="0 0 108 109" fill="none" xmlns="http://www.w3.org/2000/svg">
<path d="M3.84921 55.3665H20.6796C21.3882 55.3584 22.082 55.1619 22.6897 54.7973C23.2974 54.4327 23.7972 53.913 24.1379 53.2915L37.9711 25.6252C38.312 24.9364 38.8555 24.3684 39.5287 23.9974C40.2018 23.6265 40.9723 23.4705 41.7368 23.5502C42.4981 23.6017 43.2248 23.888 43.8167 24.3697C44.4085 24.8515 44.8364 25.5049 45.0413 26.24L62.1791 83.2634C62.404 84.0369 62.8663 84.7202 63.5007 85.2167C64.135 85.7131 64.9094 85.9977 65.7143 86.0301C66.4685 86.005 67.1987 85.7585 67.8137 85.3211C68.4287 84.8838 68.9013 84.2751 69.1726 83.5708L79.7011 57.8258C79.991 57.1036 80.4894 56.484 81.1326 56.0461C81.7759 55.6081 82.535 55.3715 83.3131 55.3665H103.756" stroke="black" stroke-width="5.18513" stroke-linecap="round" stroke-linejoin="round"/>
</svg>
